<svg width="35" height="36" viewBox="0 0 35 36" fill="none" xmlns="http://www.w3.org/2000/svg">
<g id="Logo">
<path id="Vector" d="M25.8777 23.6832C25.5914 24.8575 24.3964 25.5841 23.2221 25.2978C22.0478 25.0115 21.3212 23.8165 21.6075 22.6422C21.8938 21.4679 23.0888 20.7413 24.2631 21.0276C25.4374 21.3139 26.164 22.5089 25.8777 23.6832ZM18.9254 19.7263C17.7511 19.44 16.556 20.1666 16.2697 21.3409C15.9834 22.5152 16.71 23.7102 17.8843 23.9965C19.0586 24.2828 20.2537 23.5562 20.5399 22.3819C20.8262 21.2076 20.0997 20.0126 18.9254 19.7263ZM29.6009 22.3289C28.4266 22.0426 27.2316 22.7692 26.9453 23.9435C26.659 25.1178 27.3855 26.3128 28.5598 26.5991C29.7342 26.8854 30.9292 26.1589 31.2155 24.9846C31.5018 23.8102 30.7752 22.6152 29.6009 22.3289ZM27.9731 17.408C26.7988 17.1218 25.6037 17.8483 25.3174 19.0226C25.0311 20.1969 25.7577 21.392 26.932 21.6783C28.1063 21.9646 29.3014 21.238 29.5877 20.0637C29.8739 18.8894 29.1474 17.6943 27.9731 17.408ZM22.6353 16.1067C21.461 15.8204 20.266 16.547 19.9797 17.7213C19.6934 18.8956 20.4199 20.0907 21.5943 20.3769C22.7686 20.6632 23.9636 19.9367 24.2499 18.7624C24.5362 17.5881 23.8096 16.393 22.6353 16.1067ZM25.891 25.9485C24.7167 25.6622 23.5216 26.3887 23.2353 27.5631C22.949 28.7374 23.6756 29.9324 24.8499 30.2187C26.0242 30.505 27.2193 29.7784 27.5055 28.6041C27.7918 27.4298 27.0653 26.2348 25.891 25.9485ZM20.5532 24.6472C19.3789 24.3609 18.1839 25.0874 17.8976 26.2617C17.6113 27.436 18.3378 28.6311 19.5121 28.9174C20.6865 29.2037 21.8815 28.4771 22.1678 27.3028C22.4541 26.1285 21.7275 24.9334 20.5532 24.6472ZM22.181 29.568C21.0067 29.2817 19.8117 30.0083 19.5254 31.1826C19.2391 32.3569 19.9657 33.552 21.14 33.8382C22.3143 34.1245 23.5093 33.398 23.7956 32.2237C24.0819 31.0494 23.3553 29.8543 22.181 29.568ZM28.8553 13.3253L28.3136 11.836C25.7047 12.331 24.5542 16.1222 24.4501 16.5492L26.0515 16.9396C26.3664 16.1116 27.3374 13.5208 28.8553 13.3253Z" fill="#2E2E2E"/>
<path id="Subtract" fill-rule="evenodd" clip-rule="evenodd" d="M9.35945 16.4345C10.2063 17.2813 11.3548 17.7571 12.5524 17.7571C13.1734 17.7571 13.7811 17.6292 14.3405 17.388V26.1431H9.97211C9.64957 26.1431 9.37864 25.9109 9.32703 25.6013L8.84967 22.1823C8.03687 21.8598 7.34018 21.4211 6.66929 20.9051L3.45678 22.2081C3.17294 22.3114 2.8246 22.2081 2.66978 21.9243L0.0894492 17.4603C-0.0782723 17.1765 -0.000862225 16.8281 0.244269 16.6346L2.96652 14.493C2.91491 14.0801 2.87621 13.6672 2.87621 13.2415C2.87621 12.8157 2.91491 12.39 2.96652 11.9513L0.244269 9.84836C-0.000862225 9.65483 -0.0782723 9.30649 0.0894492 9.02265L2.66978 4.55868C2.8246 4.27485 3.17294 4.15873 3.45678 4.27485L6.66929 5.56501C7.34018 5.06185 8.03687 4.62319 8.84967 4.30065L9.32703 0.881713C9.37864 0.572074 9.64957 0.339844 9.97211 0.339844H15.1328C15.4553 0.339844 15.7262 0.572074 15.7779 0.881713L16.2552 4.30065C17.068 4.62319 17.7647 5.06185 18.4356 5.56501L21.6481 4.27485C21.9319 4.15873 22.2803 4.27485 22.4351 4.55868L25.0154 9.02265C25.1703 9.30649 25.1057 9.65483 24.8606 9.84836L22.1384 11.9513C22.19 12.39 22.2287 12.8157 22.2287 13.2415H17.068C17.068 12.0439 16.5923 10.8953 15.7454 10.0485C14.8986 9.20166 13.75 8.72591 12.5524 8.72591C11.3548 8.72591 10.2063 9.20166 9.35945 10.0485C8.51261 10.8953 8.03687 12.0439 8.03687 13.2415C8.03687 14.4391 8.51261 15.5877 9.35945 16.4345Z" fill="#2E2E2E"/>
</g>
</svg>
